<svg data-v-fde0c5aa="" xmlns="http://www.w3.org/2000/svg" viewBox="0 0 300 300" class="iconLeft"><!----><defs data-v-fde0c5aa=""><!----></defs><rect data-v-fde0c5aa="" fill="#D2EAF5" x="0" y="0" width="300px" height="300px" class="logo-background-square"></rect><defs data-v-fde0c5aa=""><!----></defs><g data-v-fde0c5aa="" id="c7ea7989-43b7-4fd5-9d92-fed78a3ed4e0" fill="#022239" transform="matrix(6.147714223695382,0,0,6.147714223695382,90.56900220964748,101.70970465561443)"><path d="M8.12 12.67L0.94 12.67L0.94 3.04L2.95 3.04L2.95 11.12L8.12 11.12L8.12 12.67ZM14.06 11.23L14.06 11.23L14.06 11.23Q14.85 11.23 15.59 11.00L15.59 11.00L15.59 11.00Q16.32 10.77 16.73 10.42L16.73 10.42L16.73 9.08L14.38 9.08L14.38 7.59L18.57 7.59L18.57 11.14L18.57 11.14Q17.81 11.92 16.58 12.37L16.58 12.37L16.58 12.37Q15.35 12.81 14.01 12.81L14.01 12.81L14.01 12.81Q11.66 12.81 10.39 11.51L10.39 11.51L10.39 11.51Q9.13 10.21 9.13 7.81L9.13 7.81L9.13 7.81Q9.13 5.43 10.40 4.17L10.40 4.17L10.40 4.17Q11.67 2.90 14.05 2.90L14.05 2.90L14.05 2.90Q17.45 2.90 18.37 5.41L18.37 5.41L16.51 5.97L16.51 5.97Q16.21 5.24 15.57 4.86L15.57 4.86L15.57 4.86Q14.92 4.48 14.05 4.48L14.05 4.48L14.05 4.48Q12.63 4.48 11.89 5.35L11.89 5.35L11.89 5.35Q11.16 6.21 11.16 7.81L11.16 7.81L11.16 7.81Q11.16 9.45 11.92 10.34L11.92 10.34L11.92 10.34Q12.68 11.23 14.06 11.23ZM27.56 12.67L20.38 12.67L20.38 3.04L22.39 3.04L22.39 11.12L27.56 11.12L27.56 12.67Z"></path></g><defs data-v-fde0c5aa=""><linearGradient data-v-fde0c5aa="" gradientTransform="rotate(25)" id="95d23cec-9439-4922-b2e5-e06442cc5018" x1="0%" y1="0%" x2="100%" y2="0%"><stop data-v-fde0c5aa="" offset="0%" stop-color="#000A68" stop-opacity="1"></stop><stop data-v-fde0c5aa="" offset="100%" stop-color="#00C4EE" stop-opacity="1"></stop></linearGradient></defs><g data-v-fde0c5aa="" id="b0954a4f-a395-4321-b285-fc369fc67d60" stroke="none" fill="url(#95d23cec-9439-4922-b2e5-e06442cc5018)" transform="matrix(1.1513978048351783,0,0,1.1513978048351783,4.104192648398218,92.4297759484527)"><path d="M68.173 48.074c-1.729-11.676-4.065-24.96-12.552-33.814-1.24-1.293-2.648-2.588-4.215-3.55a2.705 2.705 0 0 0-2.813 0c-1.566.961-2.975 2.257-4.215 3.55-8.487 8.854-10.823 22.139-12.552 33.814-.587 3.966-1.083 8.066-.056 11.941 1.985 7.484 9.707 12.426 17.23 12.834V61.681l-7.958-7.958 1.414-1.414L49 58.853V36.67h2v11.46l3.943-3.943 1.414 1.414L51 50.958v21.891c7.523-.408 15.245-5.35 17.229-12.833 1.028-3.876.532-7.976-.056-11.942zM49 88.685a1 1 0 1 0 2 0V72.889h-2v15.796z"></path></g><!----></svg>