<svg data-v-423bf9ae="" xmlns="http://www.w3.org/2000/svg" viewBox="0 0 659.3386811967106 60" class="font"><!----><!----><!----><g data-v-423bf9ae="" id="df5d75f3-3cce-477f-a406-f757bae0af2a" fill="white" transform="matrix(4.408522947042699,0,0,4.408522947042699,-2.160180327060857,-12.828801915862236)"><path d="M0.49 13.30L7.76 13.30L7.92 10.79L7.50 10.79C7.22 12.63 6.45 12.81 4.98 12.81C4.28 12.81 3.78 12.78 3.49 12.67C3.19 12.54 3.14 12.31 3.14 11.62L3.14 4.91C3.14 4.13 3.18 4.10 4.48 4.02L4.48 3.61L0.49 3.61L0.49 4.02C1.72 4.10 1.75 4.13 1.75 4.91L1.75 12.00C1.75 12.78 1.72 12.81 0.49 12.89ZM9.24 4.14C9.24 4.65 9.59 5.00 10.09 5.00C10.60 5.00 10.95 4.65 10.95 4.14C10.95 3.64 10.60 3.29 10.09 3.29C9.59 3.29 9.24 3.64 9.24 4.14ZM8.40 13.30L11.82 13.30L11.82 12.89C10.82 12.82 10.77 12.80 10.77 12.08L10.77 6.36L10.67 6.27L8.47 6.62L8.47 6.97L9.00 7.04C9.37 7.10 9.45 7.17 9.45 7.67L9.45 12.08C9.45 12.80 9.41 12.82 8.40 12.89ZM12.71 9.87C12.71 12.14 13.82 13.47 16.07 13.47C18.33 13.47 19.43 12.14 19.43 9.87C19.43 7.60 18.33 6.27 16.07 6.27C13.82 6.27 12.71 7.60 12.71 9.87ZM14.17 9.87C14.17 7.94 14.78 6.76 16.07 6.76C17.36 6.76 17.98 7.94 17.98 9.87C17.98 11.80 17.36 12.98 16.07 12.98C14.78 12.98 14.17 11.80 14.17 9.87ZM20.55 13.30L23.97 13.30L23.97 12.89C22.97 12.82 22.92 12.80 22.92 12.08L22.92 8.81C22.92 8.46 22.95 8.26 23.06 8.04C23.35 7.49 23.98 7.03 24.72 7.03C25.68 7.03 26.19 7.56 26.19 8.78L26.19 12.08C26.19 12.80 26.15 12.82 25.14 12.89L25.14 13.30L28.56 13.30L28.56 12.89C27.57 12.82 27.51 12.80 27.51 12.08L27.51 8.50C27.51 7.08 26.74 6.27 25.45 6.27C24.42 6.27 23.77 6.78 22.90 7.34L22.71 6.27L20.62 6.62L20.62 6.97L21.15 7.04C21.52 7.10 21.60 7.17 21.60 7.67L21.60 12.08C21.60 12.80 21.56 12.82 20.55 12.89ZM29.43 10.96L29.57 12.80C30.07 13.24 30.93 13.47 31.75 13.47C33.42 13.47 34.37 12.59 34.37 11.40C34.37 10.16 33.61 9.60 32.17 9.16C31.60 8.97 30.67 8.68 30.67 7.90C30.67 7.17 31.23 6.76 31.93 6.76C32.93 6.76 33.40 7.53 33.50 8.39L33.91 8.39L33.91 6.75C33.45 6.41 32.73 6.27 32.10 6.27C30.59 6.27 29.55 6.99 29.55 8.32C29.55 9.48 30.51 10.00 31.67 10.35C32.30 10.54 33.18 10.86 33.18 11.82C33.18 12.53 32.62 12.98 31.88 12.98C30.74 12.98 30.11 12.15 29.83 10.96ZM38.70 8.64C38.70 10.44 39.41 11.89 40.43 12.61C41.50 13.36 42.73 13.51 43.96 13.51C44.94 13.51 46.30 13.20 47.18 12.92L47.18 10.16C47.18 9.46 47.25 9.39 48.17 9.30L48.17 8.89L44.31 8.89L44.31 9.30C45.72 9.39 45.79 9.48 45.79 10.16L45.79 12.05C45.79 12.54 45.61 12.70 45.32 12.81C44.95 12.95 44.56 13.02 44.09 13.02C40.87 13.02 40.26 10.16 40.26 8.41C40.26 6.20 41.15 3.89 43.90 3.89C45.44 3.89 46.34 4.59 46.63 6.17L47.05 6.17L47.05 3.98C46.37 3.64 45.16 3.40 44.04 3.40C41.94 3.40 40.54 4.09 39.75 5.12C39.03 6.06 38.70 7.18 38.70 8.64ZM48.82 11.48C48.82 12.53 49.52 13.47 50.83 13.47C51.65 13.47 52.47 12.92 52.92 12.63C53.12 13.15 53.34 13.47 53.83 13.47C54.35 13.47 54.95 13.31 55.48 13.05L55.40 12.71C55.20 12.75 54.89 12.78 54.68 12.73C54.43 12.67 54.19 12.40 54.19 11.52L54.19 8.13C54.19 7.32 54.01 6.27 51.90 6.27C50.32 6.27 49.07 7.10 49.07 7.87C49.07 8.32 49.59 8.53 49.85 8.53C50.15 8.53 50.23 8.37 50.30 8.13C50.61 7.10 51.18 6.76 51.74 6.76C52.29 6.76 52.93 7.04 52.93 8.16L52.93 8.75C52.58 9.11 51.23 9.46 50.12 9.81C49.11 10.12 48.82 10.82 48.82 11.48ZM50.23 11.28C50.23 10.63 50.54 10.29 51.32 10.00C51.88 9.79 52.63 9.52 52.93 9.32L52.93 11.30C52.93 12.43 52.07 12.73 51.52 12.73C50.65 12.73 50.23 12.11 50.23 11.28ZM55.89 7.00L56.90 7.00L56.90 11.87C56.90 13.30 57.96 13.47 58.45 13.47C59.16 13.47 59.84 13.10 60.24 12.85L60.13 12.56C59.79 12.70 59.49 12.74 59.14 12.74C58.66 12.74 58.21 12.40 58.21 11.34L58.21 7.00L60.02 7.00L60.02 6.44L58.21 6.44L58.21 4.68L57.81 4.68L56.95 6.44L55.89 6.44ZM60.96 9.93C60.96 12.14 61.91 13.47 64.19 13.47C65.74 13.47 66.54 12.60 66.92 11.49L66.50 11.27C66.11 12.08 65.58 12.75 64.47 12.75C62.73 12.75 62.38 11.07 62.41 9.62L66.44 9.62C66.74 9.62 67.00 9.55 67.00 9.09C67.00 8.26 66.74 6.27 64.18 6.27C61.99 6.27 60.96 7.83 60.96 9.93ZM62.43 9.09C62.43 8.51 62.64 6.76 64.09 6.76C65.39 6.76 65.55 8.09 65.55 8.64C65.55 8.90 65.46 9.09 65.07 9.09ZM71.11 13.30L78.37 13.30L78.54 10.79L78.12 10.79C77.84 12.63 77.07 12.81 75.60 12.81C74.90 12.81 74.40 12.78 74.10 12.67C73.81 12.54 73.75 12.31 73.75 11.62L73.75 4.91C73.75 4.13 73.79 4.10 75.10 4.02L75.10 3.61L71.11 3.61L71.11 4.02C72.34 4.10 72.37 4.13 72.37 4.91L72.37 12.00C72.37 12.78 72.34 12.81 71.11 12.89ZM79.25 11.48C79.25 12.53 79.95 13.47 81.27 13.47C82.08 13.47 82.91 12.92 83.36 12.63C83.55 13.15 83.78 13.47 84.27 13.47C84.78 13.47 85.39 13.31 85.92 13.05L85.83 12.71C85.64 12.75 85.33 12.78 85.12 12.73C84.87 12.67 84.63 12.40 84.63 11.52L84.63 8.13C84.63 7.32 84.45 6.27 82.33 6.27C80.75 6.27 79.51 7.10 79.51 7.87C79.51 8.32 80.02 8.53 80.29 8.53C80.58 8.53 80.67 8.37 80.74 8.13C81.05 7.10 81.62 6.76 82.18 6.76C82.73 6.76 83.37 7.04 83.37 8.16L83.37 8.75C83.02 9.11 81.66 9.46 80.56 9.81C79.55 10.12 79.25 10.82 79.25 11.48ZM80.67 11.28C80.67 10.63 80.98 10.29 81.76 10.00C82.32 9.79 83.06 9.52 83.37 9.32L83.37 11.30C83.37 12.43 82.50 12.73 81.96 12.73C81.09 12.73 80.67 12.11 80.67 11.28ZM86.34 13.30L89.75 13.30L89.75 12.89C88.76 12.82 88.70 12.80 88.70 12.08L88.70 8.81C88.70 8.46 88.73 8.26 88.84 8.04C89.14 7.49 89.77 7.03 90.51 7.03C91.46 7.03 91.98 7.56 91.98 8.78L91.98 12.08C91.98 12.80 91.94 12.82 90.93 12.89L90.93 13.30L94.35 13.30L94.35 12.89C93.35 12.82 93.30 12.80 93.30 12.08L93.30 8.50C93.30 7.08 92.53 6.27 91.24 6.27C90.20 6.27 89.56 6.78 88.69 7.34L88.49 6.27L86.41 6.62L86.41 6.97L86.94 7.04C87.30 7.10 87.39 7.17 87.39 7.67L87.39 12.08C87.39 12.80 87.35 12.82 86.34 12.89ZM95.24 10.01C95.24 12.08 96.32 13.47 98.17 13.47C98.92 13.47 99.58 13.13 100.34 12.52L100.34 13.20L100.45 13.30L102.72 13.30L102.72 12.89C101.72 12.82 101.67 12.80 101.67 12.08L101.67 3.00L101.57 2.91L99.37 3.26L99.37 3.61L99.90 3.67C100.27 3.71 100.35 3.78 100.35 4.31L100.35 6.61C99.96 6.40 99.44 6.27 98.80 6.27C97.65 6.27 96.80 6.64 96.21 7.24C95.61 7.87 95.24 8.79 95.24 10.01ZM96.70 9.84C96.70 8.02 97.36 6.76 98.78 6.76C99.44 6.76 99.97 7.07 100.23 7.64C100.34 7.88 100.35 8.08 100.35 8.46L100.35 10.92C100.35 11.23 100.34 11.47 100.25 11.70C99.97 12.43 99.36 12.71 98.63 12.71C97.34 12.71 96.70 11.45 96.70 9.84ZM103.59 10.96L103.73 12.80C104.23 13.24 105.08 13.47 105.91 13.47C107.58 13.47 108.53 12.59 108.53 11.40C108.53 10.16 107.77 9.60 106.33 9.16C105.76 8.97 104.83 8.68 104.83 7.90C104.83 7.17 105.39 6.76 106.09 6.76C107.09 6.76 107.56 7.53 107.66 8.39L108.07 8.39L108.07 6.75C107.60 6.41 106.89 6.27 106.26 6.27C104.75 6.27 103.71 6.99 103.71 8.32C103.71 9.48 104.66 10.00 105.83 10.35C106.46 10.54 107.34 10.86 107.34 11.82C107.34 12.53 106.78 12.98 106.04 12.98C104.90 12.98 104.27 12.15 103.99 10.96ZM109.72 9.94C109.72 12.28 110.87 13.47 112.97 13.47C113.95 13.47 115.26 12.95 115.65 11.45L115.25 11.26C114.81 12.24 114.25 12.74 113.23 12.74C111.57 12.74 111.17 11.00 111.17 9.69C111.17 7.60 112.00 6.76 112.97 6.76C113.61 6.76 114.02 7.22 114.30 7.98C114.38 8.20 114.46 8.34 114.73 8.34C115.01 8.34 115.56 8.16 115.56 7.63C115.56 6.99 114.63 6.27 113.12 6.27C110.57 6.27 109.72 8.08 109.72 9.94ZM116.66 11.48C116.66 12.53 117.36 13.47 118.68 13.47C119.49 13.47 120.32 12.92 120.76 12.63C120.96 13.15 121.18 13.47 121.67 13.47C122.19 13.47 122.79 13.31 123.33 13.05L123.24 12.71C123.05 12.75 122.74 12.78 122.53 12.73C122.28 12.67 122.04 12.40 122.04 11.52L122.04 8.13C122.04 7.32 121.86 6.27 119.74 6.27C118.16 6.27 116.91 7.10 116.91 7.87C116.91 8.32 117.43 8.53 117.70 8.53C117.99 8.53 118.08 8.37 118.15 8.13C118.45 7.10 119.03 6.76 119.59 6.76C120.13 6.76 120.78 7.04 120.78 8.16L120.78 8.75C120.43 9.11 119.07 9.46 117.96 9.81C116.96 10.12 116.66 10.82 116.66 11.48ZM118.08 11.28C118.08 10.63 118.38 10.29 119.17 10.00C119.73 9.79 120.47 9.52 120.78 9.32L120.78 11.30C120.78 12.43 119.91 12.73 119.36 12.73C118.50 12.73 118.08 12.11 118.08 11.28ZM123.65 16.11L123.65 16.52L127.27 16.52L127.27 16.11C126.10 16.04 126.01 16.02 126.01 15.30L126.01 13.15C126.31 13.31 126.97 13.47 127.61 13.47C129.50 13.47 131.12 12.60 131.12 9.72C131.12 8.72 130.94 6.27 128.39 6.27C127.37 6.27 126.56 6.96 126.01 7.31L125.83 6.27L123.72 6.62L123.72 6.97L124.25 7.04C124.61 7.10 124.70 7.17 124.70 7.67L124.70 15.30C124.70 16.02 124.63 16.04 123.65 16.11ZM126.01 11.10L126.01 8.81C126.01 8.46 126.07 8.26 126.20 8.01C126.52 7.36 127.12 7.03 127.86 7.03C128.42 7.03 129.67 7.39 129.67 9.80C129.67 11.86 129.02 12.98 127.62 12.98C126.90 12.98 126.34 12.60 126.11 11.96C126.03 11.70 126.01 11.42 126.01 11.10ZM132.50 9.93C132.50 12.14 133.45 13.47 135.73 13.47C137.28 13.47 138.08 12.60 138.46 11.49L138.04 11.27C137.65 12.08 137.12 12.75 136.01 12.75C134.27 12.75 133.92 11.07 133.95 9.62L137.98 9.62C138.28 9.62 138.54 9.55 138.54 9.09C138.54 8.26 138.28 6.27 135.72 6.27C133.53 6.27 132.50 7.83 132.50 9.93ZM133.97 9.09C133.97 8.51 134.18 6.76 135.63 6.76C136.93 6.76 137.09 8.09 137.09 8.64C137.09 8.90 137.00 9.09 136.61 9.09ZM139.45 13.30L143.15 13.30L143.15 12.89C141.90 12.82 141.82 12.80 141.82 12.08L141.82 8.81C141.82 7.73 142.30 7.36 142.62 7.36C142.84 7.36 143.08 7.45 143.49 7.67C143.58 7.73 143.70 7.74 143.77 7.74C144.10 7.74 144.41 7.39 144.41 6.96C144.41 6.65 144.21 6.27 143.67 6.27C143.16 6.27 142.74 6.58 141.82 7.39L141.65 6.27L139.52 6.62L139.52 6.97L140.06 7.04C140.42 7.10 140.50 7.17 140.50 7.67L140.50 12.08C140.50 12.80 140.43 12.82 139.45 12.89ZM145.11 10.96L145.25 12.80C145.75 13.24 146.61 13.47 147.43 13.47C149.10 13.47 150.05 12.59 150.05 11.40C150.05 10.16 149.30 9.60 147.85 9.16C147.28 8.97 146.36 8.68 146.36 7.90C146.36 7.17 146.92 6.76 147.62 6.76C148.61 6.76 149.09 7.53 149.18 8.39L149.59 8.39L149.59 6.75C149.13 6.41 148.41 6.27 147.78 6.27C146.27 6.27 145.24 6.99 145.24 8.32C145.24 9.48 146.19 10.00 147.35 10.35C147.98 10.54 148.86 10.86 148.86 11.82C148.86 12.53 148.30 12.98 147.56 12.98C146.43 12.98 145.80 12.15 145.52 10.96Z"></path></g><!----><!----></svg>